<mxfile host="app.diagrams.net" modified="2022-12-13T03:47:29.351Z" agent="5.0 (Macintosh; Intel Mac OS X 10_15_7) AppleWebKit/537.36 (KHTML, like Gecko) Chrome/107.0.0.0 Safari/537.36" version="20.6.2" etag="MuU2eVbEHWahHIQL6L3c" type="github">
  <diagram id="yTsK0RVFZhL4D4PjdeFJ" name="第 1 页">
    <mxGraphModel dx="1426" dy="819" grid="1" gridSize="10" guides="1" tooltips="1" connect="1" arrows="1" fold="1" page="1" pageScale="1" pageWidth="827" pageHeight="1169" math="0" shadow="0">
      <root>
        <mxCell id="0" />
        <mxCell id="1" parent="0" />
        <mxCell id="nIgaFsDddQN33NRLavJ3-35" value="" style="edgeStyle=none;rounded=0;orthogonalLoop=1;jettySize=auto;html=1;" edge="1" parent="1" source="nIgaFsDddQN33NRLavJ3-31" target="nIgaFsDddQN33NRLavJ3-34">
          <mxGeometry relative="1" as="geometry" />
        </mxCell>
        <mxCell id="nIgaFsDddQN33NRLavJ3-31" value="药商工作人员" style="shape=umlActor;verticalLabelPosition=bottom;verticalAlign=top;html=1;" vertex="1" parent="1">
          <mxGeometry x="120" y="480" width="30" height="60" as="geometry" />
        </mxCell>
        <mxCell id="nIgaFsDddQN33NRLavJ3-38" value="" style="edgeStyle=none;rounded=0;orthogonalLoop=1;jettySize=auto;html=1;" edge="1" parent="1" source="nIgaFsDddQN33NRLavJ3-34" target="nIgaFsDddQN33NRLavJ3-37">
          <mxGeometry relative="1" as="geometry" />
        </mxCell>
        <mxCell id="nIgaFsDddQN33NRLavJ3-40" value="" style="edgeStyle=none;rounded=0;orthogonalLoop=1;jettySize=auto;html=1;" edge="1" parent="1" source="nIgaFsDddQN33NRLavJ3-34" target="nIgaFsDddQN33NRLavJ3-39">
          <mxGeometry relative="1" as="geometry" />
        </mxCell>
        <mxCell id="nIgaFsDddQN33NRLavJ3-42" value="" style="edgeStyle=none;rounded=0;orthogonalLoop=1;jettySize=auto;html=1;" edge="1" parent="1" source="nIgaFsDddQN33NRLavJ3-34" target="nIgaFsDddQN33NRLavJ3-41">
          <mxGeometry relative="1" as="geometry" />
        </mxCell>
        <mxCell id="nIgaFsDddQN33NRLavJ3-45" value="" style="edgeStyle=none;rounded=0;orthogonalLoop=1;jettySize=auto;html=1;" edge="1" parent="1" source="nIgaFsDddQN33NRLavJ3-34" target="nIgaFsDddQN33NRLavJ3-44">
          <mxGeometry relative="1" as="geometry" />
        </mxCell>
        <mxCell id="nIgaFsDddQN33NRLavJ3-51" value="" style="edgeStyle=none;rounded=0;orthogonalLoop=1;jettySize=auto;html=1;" edge="1" parent="1" source="nIgaFsDddQN33NRLavJ3-34" target="nIgaFsDddQN33NRLavJ3-50">
          <mxGeometry relative="1" as="geometry" />
        </mxCell>
        <mxCell id="nIgaFsDddQN33NRLavJ3-54" value="" style="edgeStyle=none;rounded=0;orthogonalLoop=1;jettySize=auto;html=1;" edge="1" parent="1" source="nIgaFsDddQN33NRLavJ3-34" target="nIgaFsDddQN33NRLavJ3-53">
          <mxGeometry relative="1" as="geometry" />
        </mxCell>
        <mxCell id="nIgaFsDddQN33NRLavJ3-57" value="" style="edgeStyle=none;rounded=0;orthogonalLoop=1;jettySize=auto;html=1;" edge="1" parent="1" source="nIgaFsDddQN33NRLavJ3-34" target="nIgaFsDddQN33NRLavJ3-56">
          <mxGeometry relative="1" as="geometry" />
        </mxCell>
        <mxCell id="nIgaFsDddQN33NRLavJ3-59" value="" style="edgeStyle=none;rounded=0;orthogonalLoop=1;jettySize=auto;html=1;" edge="1" parent="1" source="nIgaFsDddQN33NRLavJ3-34" target="nIgaFsDddQN33NRLavJ3-56">
          <mxGeometry relative="1" as="geometry" />
        </mxCell>
        <mxCell id="nIgaFsDddQN33NRLavJ3-61" value="" style="edgeStyle=none;rounded=0;orthogonalLoop=1;jettySize=auto;html=1;" edge="1" parent="1" source="nIgaFsDddQN33NRLavJ3-34" target="nIgaFsDddQN33NRLavJ3-60">
          <mxGeometry relative="1" as="geometry" />
        </mxCell>
        <mxCell id="nIgaFsDddQN33NRLavJ3-63" value="" style="edgeStyle=none;rounded=0;orthogonalLoop=1;jettySize=auto;html=1;" edge="1" parent="1" source="nIgaFsDddQN33NRLavJ3-34" target="nIgaFsDddQN33NRLavJ3-62">
          <mxGeometry relative="1" as="geometry" />
        </mxCell>
        <mxCell id="nIgaFsDddQN33NRLavJ3-64" value="" style="edgeStyle=none;rounded=0;orthogonalLoop=1;jettySize=auto;html=1;" edge="1" parent="1" source="nIgaFsDddQN33NRLavJ3-34" target="nIgaFsDddQN33NRLavJ3-62">
          <mxGeometry relative="1" as="geometry" />
        </mxCell>
        <mxCell id="nIgaFsDddQN33NRLavJ3-66" value="" style="edgeStyle=none;rounded=0;orthogonalLoop=1;jettySize=auto;html=1;" edge="1" parent="1" source="nIgaFsDddQN33NRLavJ3-34" target="nIgaFsDddQN33NRLavJ3-65">
          <mxGeometry relative="1" as="geometry" />
        </mxCell>
        <mxCell id="nIgaFsDddQN33NRLavJ3-68" value="" style="edgeStyle=none;rounded=0;orthogonalLoop=1;jettySize=auto;html=1;" edge="1" parent="1" source="nIgaFsDddQN33NRLavJ3-34" target="nIgaFsDddQN33NRLavJ3-67">
          <mxGeometry relative="1" as="geometry" />
        </mxCell>
        <mxCell id="nIgaFsDddQN33NRLavJ3-34" value="处方订单管理" style="ellipse;whiteSpace=wrap;html=1;" vertex="1" parent="1">
          <mxGeometry x="230" y="480" width="90" height="65" as="geometry" />
        </mxCell>
        <mxCell id="nIgaFsDddQN33NRLavJ3-37" value="订单查询" style="ellipse;whiteSpace=wrap;html=1;" vertex="1" parent="1">
          <mxGeometry x="500" y="117.5" width="120" height="60" as="geometry" />
        </mxCell>
        <mxCell id="nIgaFsDddQN33NRLavJ3-39" value="订单详情/操作日志" style="ellipse;whiteSpace=wrap;html=1;" vertex="1" parent="1">
          <mxGeometry x="500" y="191" width="120" height="60" as="geometry" />
        </mxCell>
        <mxCell id="nIgaFsDddQN33NRLavJ3-41" value="线下收款" style="ellipse;whiteSpace=wrap;html=1;" vertex="1" parent="1">
          <mxGeometry x="500" y="264" width="120" height="60" as="geometry" />
        </mxCell>
        <mxCell id="nIgaFsDddQN33NRLavJ3-44" value="发快递" style="ellipse;whiteSpace=wrap;html=1;" vertex="1" parent="1">
          <mxGeometry x="500" y="337" width="120" height="60" as="geometry" />
        </mxCell>
        <mxCell id="nIgaFsDddQN33NRLavJ3-50" value="到店自取" style="ellipse;whiteSpace=wrap;html=1;" vertex="1" parent="1">
          <mxGeometry x="500" y="410" width="120" height="60" as="geometry" />
        </mxCell>
        <mxCell id="nIgaFsDddQN33NRLavJ3-53" value="发货到院" style="ellipse;whiteSpace=wrap;html=1;" vertex="1" parent="1">
          <mxGeometry x="500" y="483" width="120" height="60" as="geometry" />
        </mxCell>
        <mxCell id="nIgaFsDddQN33NRLavJ3-56" value="院内签收" style="ellipse;whiteSpace=wrap;html=1;" vertex="1" parent="1">
          <mxGeometry x="500" y="556" width="120" height="60" as="geometry" />
        </mxCell>
        <mxCell id="nIgaFsDddQN33NRLavJ3-60" value="院内发货" style="ellipse;whiteSpace=wrap;html=1;" vertex="1" parent="1">
          <mxGeometry x="500" y="629" width="120" height="60" as="geometry" />
        </mxCell>
        <mxCell id="nIgaFsDddQN33NRLavJ3-62" value="签收" style="ellipse;whiteSpace=wrap;html=1;" vertex="1" parent="1">
          <mxGeometry x="500" y="702" width="120" height="60" as="geometry" />
        </mxCell>
        <mxCell id="nIgaFsDddQN33NRLavJ3-65" value="退款" style="ellipse;whiteSpace=wrap;html=1;" vertex="1" parent="1">
          <mxGeometry x="500" y="775" width="120" height="60" as="geometry" />
        </mxCell>
        <mxCell id="nIgaFsDddQN33NRLavJ3-67" value="未支付处方单线下收款" style="ellipse;whiteSpace=wrap;html=1;" vertex="1" parent="1">
          <mxGeometry x="500" y="847.5" width="120" height="60" as="geometry" />
        </mxCell>
      </root>
    </mxGraphModel>
  </diagram>
</mxfile>
